<svg width="229" height="600" viewBox="0 0 229 600" fill="none" xmlns="http://www.w3.org/2000/svg">
<g clip-path="url(#clip0_76_769)">
<path fill-rule="evenodd" clip-rule="evenodd" d="M100.188 0H128.813V28.5714H143.125V85.7143H128.813V114.286H100.188V85.7143H85.875V28.5714H100.188V0ZM14.3125 85.7143H42.9375V114.286H71.5625V142.857H100.188V228.571H71.5625V200H42.9375V171.429H14.3125V85.7143ZM186.063 85.7143H214.688V171.429H186.063V200H157.438V228.571H128.813V142.857H157.438V114.286H186.063V85.7143ZM0 200H28.625V228.571H57.25V257.143H100.188V342.857H71.5625V314.286H42.9375V300H14.3125V271.429H0V200ZM200.375 200H229V271.429H214.688V300H186.063V314.286H157.438V342.857H128.813V257.143H171.75V228.571H200.375V200ZM14.3125 328.571H42.9375V357.143H71.5625V371.429H100.188V457.143H71.5625V428.571H42.9375V400H14.3125V328.571ZM186.063 328.571H214.688V400H186.063V428.571H157.438V457.143H128.813V371.429H157.438V357.143H186.063V328.571Z" fill="#CF9E36"/>
<path fill-rule="evenodd" clip-rule="evenodd" d="M100.188 471.429H128.813V557.143H114.5V571.429H100.188V585.714H85.875V600H42.9375V571.429H71.5625V557.143H85.875V542.857H100.188V471.429Z" fill="#4B692F"/>
</g>
<defs>
<clipPath id="clip0_76_769">
<rect width="229" height="600" fill="white"/>
</clipPath>
</defs>
</svg>
