<svg xmlns="http://www.w3.org/2000/svg" viewBox="0 0 1120 618">
  <defs>
    <style>
      .terminal-bg { fill: #1e1e2e; }
      .terminal-border { fill: #313244; }
      .title-bar { fill: #181825; }
      .btn-red { fill: #f38ba8; }
      .btn-yellow { fill: #f9e2af; }
      .btn-green { fill: #a6e3a1; }
      .text { font-family: 'SF Mono', 'Fira Code', 'JetBrains Mono', Consolas, monospace; }
      .command { fill: #cdd6f4; }
      .brand { fill: #38bdf8; }
      .green { fill: #a6e3a1; }
      .dim { fill: #6c7086; }
      .white { fill: #cdd6f4; }
      .prompt { fill: #89b4fa; }
    </style>
  </defs>

  <rect class="terminal-border" width="1120" height="618" rx="12"/>
  <rect class="terminal-bg" x="1" y="1" width="1118" height="616" rx="11"/>
  <rect class="title-bar" x="1" y="1" width="1118" height="48" rx="11"/>
  <circle class="btn-red" cx="28" cy="25" r="7"/>
  <circle class="btn-yellow" cx="52" cy="25" r="7"/>
  <circle class="btn-green" cx="76" cy="25" r="7"/>
  <text x="560" y="25" text-anchor="middle" dominant-baseline="central" class="text dim" font-size="13">maltty</text>

  <g transform="translate(32, 108)">
    <!-- Prompt line -->
    <text class="text prompt" font-size="15" y="0">~</text>
    <text class="text dim" font-size="15" x="16" y="0">$</text>
    <text class="text command" font-size="15" x="36" y="0">maltty init my-cli</text>

    <!-- Maltty logo (icon + wordmark) -->
    <svg x="128" y="30" width="800" height="204" viewBox="0 0 2347 600">
      <path d="M607.49 489.13V211.739H582.277V186.522H506.639V161.304H531.852V136.087H607.49V161.304H632.703V186.522H657.916V489.13H607.49ZM783.981 489.13V211.739H758.768V186.522H657.916V161.304H683.129V136.087H783.981V161.304H809.194V186.522H834.407V489.13H783.981ZM431 489.13V136.087H481.426V186.522H506.639V211.739H481.426V489.13H431Z" fill="#CF9E36"/>
      <path d="M935.103 438.696V337.826H960.316V312.609H1010.74V287.391H1136.81V262.174H1162.02V211.739H1136.81V186.522H1010.74V211.739H985.529V236.957H935.103V186.522H960.316V161.304H1010.74V136.087H1136.81V161.304H1187.23V211.739H1212.44V438.696H1237.66V489.13H1187.23V463.913H1162.02V438.696H1136.81V413.478H1162.02V312.609H1136.81V337.826H1010.74V363.043H985.529V438.696H1136.81V463.913H1111.59V489.13H985.529V463.913H960.316V438.696H935.103Z" fill="#CF9E36"/>
      <path d="M1288.29 489.13V438.696H1363.93V60.4348H1288.29V10H1363.93V35.2174H1389.14V60.4348H1414.36V438.696H1489.99V489.13H1288.29Z" fill="#CF9E36"/>
      <path d="M1590.77 438.696V186.522H1540.34V136.087H1590.77V60.4348H1641.19V136.087H1742.05V186.522H1641.19V438.696H1742.05V489.13H1641.19V463.913H1615.98V438.696H1590.77Z" fill="#CF9E36"/>
      <path d="M1842.82 438.696V186.522H1792.39V136.087H1842.82V60.4348H1893.25V136.087H1994.1V186.522H1893.25V438.696H1994.1V489.13H1893.25V463.913H1868.03V438.696H1842.82Z" fill="#CF9E36"/>
      <path d="M2120.08 438.696V363.043H2094.87V287.391H2069.66V211.739H2044.45V136.087H2094.87V211.739H2120.08V287.391H2145.3V363.043H2170.51V438.696H2220.94V363.043H2246.15V287.391H2271.36V211.739H2296.57V136.087H2347V211.739H2321.79V287.391H2296.57V363.043H2271.36V438.696H2246.15V489.13H2220.94V539.565H2195.72V564.783H2170.51V590H2069.66V539.565H2170.51V489.13H2145.3V438.696H2120.08Z" fill="#CF9E36"/>
      <path fill-rule="evenodd" clip-rule="evenodd" d="M100.188 0H128.813V28.5714H143.125V85.7143H128.813V114.286H100.188V85.7143H85.875V28.5714H100.188V0ZM14.3125 85.7143H42.9375V114.286H71.5625V142.857H100.188V228.571H71.5625V200H42.9375V171.429H14.3125V85.7143ZM186.063 85.7143H214.688V171.429H186.063V200H157.438V228.571H128.813V142.857H157.438V114.286H186.063V85.7143ZM0 200H28.625V228.571H57.25V257.143H100.188V342.857H71.5625V314.286H42.9375V300H14.3125V271.429H0V200ZM200.375 200H229V271.429H214.688V300H186.063V314.286H157.438V342.857H128.813V257.143H171.75V228.571H200.375V200ZM14.3125 328.571H42.9375V357.143H71.5625V371.429H100.188V457.143H71.5625V428.571H42.9375V400H14.3125V328.571ZM186.063 328.571H214.688V400H186.063V428.571H157.438V457.143H128.813V371.429H157.438V357.143H186.063V328.571Z" fill="#CF9E36"/>
      <path fill-rule="evenodd" clip-rule="evenodd" d="M100.188 471.429H128.813V557.143H114.5V571.429H100.188V585.714H85.875V600H42.9375V571.429H71.5625V557.143H85.875V542.857H100.188V471.429Z" fill="#4B692F"/>
    </svg>

    <!-- Version and description -->
    <text class="text white" font-size="15" y="294">  maltty <tspan class="dim">v1.4.2</tspan></text>
    <text class="text white" font-size="15" y="318">  An opinionated CLI framework for Node.js.</text>

    <!-- Init output -->
    <text class="text" font-size="15" y="354"><tspan class="green">  &#x2713;</tspan><tspan class="white"> Scaffolded project structure</tspan></text>
    <text class="text" font-size="15" y="378"><tspan class="green">  &#x2713;</tspan><tspan class="white"> Registered commands</tspan></text>
    <text class="text" font-size="15" y="402"><tspan class="green">  &#x2713;</tspan><tspan class="white"> Ready to build</tspan></text>

    <!-- Done message -->
    <text class="text" font-size="15" y="438"><tspan class="green">  Done!</tspan><tspan class="white"> Run </tspan><tspan class="brand">maltty --help</tspan><tspan class="white"> to learn more.</tspan></text>

    <!-- New prompt -->
    <text class="text prompt" font-size="15" y="478">~</text>
    <text class="text dim" font-size="15" x="16" y="478">$</text>
    <text class="text white" font-size="15" x="36" y="478">&#x2588;</text>
  </g>
</svg>
