<svg width="1916" height="580" viewBox="0 0 1916 580" fill="none" xmlns="http://www.w3.org/2000/svg">
<path d="M176.49 479.13V201.739H151.277V176.522H75.6387V151.304H100.852V126.087H176.49V151.304H201.703V176.522H226.916V479.13H176.49ZM352.981 479.13V201.739H327.768V176.522H226.916V151.304H252.129V126.087H352.981V151.304H378.194V176.522H403.407V479.13H352.981ZM0 479.13V126.087H50.4258V176.522H75.6387V201.739H50.4258V479.13H0Z" fill="#CF9E36"/>
<path d="M504.103 428.696V327.826H529.316V302.609H579.742V277.391H705.806V252.174H731.019V201.739H705.806V176.522H579.742V201.739H554.529V226.957H504.103V176.522H529.316V151.304H579.742V126.087H705.806V151.304H756.232V201.739H781.445V428.696H806.658V479.13H756.232V453.913H731.019V428.696H705.806V403.478H731.019V302.609H705.806V327.826H579.742V353.043H554.529V428.696H705.806V453.913H680.593V479.13H554.529V453.913H529.316V428.696H504.103Z" fill="#CF9E36"/>
<path d="M857.291 479.13V428.696H932.93V50.4348H857.291V0H932.93V25.2174H958.143V50.4348H983.355V428.696H1058.99V479.13H857.291Z" fill="#CF9E36"/>
<path d="M1159.77 428.696V176.522H1109.34V126.087H1159.77V50.4348H1210.19V126.087H1311.05V176.522H1210.19V428.696H1311.05V479.13H1210.19V453.913H1184.98V428.696H1159.77Z" fill="#CF9E36"/>
<path d="M1411.82 428.696V176.522H1361.39V126.087H1411.82V50.4348H1462.25V126.087H1563.1V176.522H1462.25V428.696H1563.1V479.13H1462.25V453.913H1437.03V428.696H1411.82Z" fill="#CF9E36"/>
<path d="M1689.08 428.696V353.043H1663.87V277.391H1638.66V201.739H1613.45V126.087H1663.87V201.739H1689.08V277.391H1714.3V353.043H1739.51V428.696H1789.94V353.043H1815.15V277.391H1840.36V201.739H1865.57V126.087H1916V201.739H1890.79V277.391H1865.57V353.043H1840.36V428.696H1815.15V479.13H1789.94V529.565H1764.72V554.783H1739.51V580H1638.66V529.565H1739.51V479.13H1714.3V428.696H1689.08Z" fill="#CF9E36"/>
</svg>
